<svg xmlns="http://www.w3.org/2000/svg" width="920" height="440" viewBox="0 0 920 440"><defs></defs><rect width="920" height="440" fill="#ffffff"/><text x="460" y="30" font-family="'Segoe UI','PingFang SC','Microsoft YaHei','Noto Sans SC',sans-serif" font-size="17" fill="#1c1e26" font-weight="800" text-anchor="middle" style="">Orchestrator-Workers:可扩展的标准架构</text>
<rect x="330" y="70" width="260" height="62" rx="10" fill="#eef0fd" stroke="#4f46e5" stroke-width="1.4"/>
<text x="460.0" y="93.7" font-family="'Segoe UI','PingFang SC','Microsoft YaHei','Noto Sans SC',sans-serif" font-size="14" fill="#3730a3" font-weight="700" text-anchor="middle" style="">🧭 Orchestrator</text>
<text x="460.0" y="115.4" font-family="'Segoe UI','PingFang SC','Microsoft YaHei','Noto Sans SC',sans-serif" font-size="11" fill="#7a7d8c" font-weight="400" text-anchor="middle" style="">拆解 · 分派 · 汇总 · 交付</text>
<rect x="50" y="220" width="185" height="62" rx="10" fill="#f3e8ff" stroke="#0d9488" stroke-width="1.4"/>
<text x="142.5" y="246.6" font-family="'Segoe UI','PingFang SC','Microsoft YaHei','Noto Sans SC',sans-serif" font-size="12.5" fill="#0d9488" font-weight="700" text-anchor="middle" style="">研究员 A</text>
<text x="142.5" y="263.5" font-family="'Segoe UI','PingFang SC','Microsoft YaHei','Noto Sans SC',sans-serif" font-size="12.5" fill="#0d9488" font-weight="700" text-anchor="middle" style="">(文献)</text>
<marker id="m1" viewBox="0 0 10 10" refX="9" refY="5" markerWidth="7.5" markerHeight="7.5" orient="auto-start-reverse"><path d="M0,0.6 L9.5,5 L0,9.4 z" fill="#7a7d8c"/></marker>
<polyline points="460.0,101.0 460.0,160 142.5,160 142.5,220" fill="none" stroke="#7a7d8c" stroke-width="1.8" marker-end="url(#m1)"/>
<marker id="m2" viewBox="0 0 10 10" refX="9" refY="5" markerWidth="7.5" markerHeight="7.5" orient="auto-start-reverse"><path d="M0,0.6 L9.5,5 L0,9.4 z" fill="#7a7d8c"/></marker>
<polyline points="172.5,251.0 172.5,330 460.0,330 460.0,105.0" fill="none" stroke="#7a7d8c" stroke-width="1.2" stroke-dasharray="4 4" marker-end="url(#m2)"/>
<rect x="265" y="220" width="185" height="62" rx="10" fill="#f3e8ff" stroke="#0d9488" stroke-width="1.4"/>
<text x="357.5" y="246.6" font-family="'Segoe UI','PingFang SC','Microsoft YaHei','Noto Sans SC',sans-serif" font-size="12.5" fill="#0d9488" font-weight="700" text-anchor="middle" style="">研究员 B</text>
<text x="357.5" y="263.5" font-family="'Segoe UI','PingFang SC','Microsoft YaHei','Noto Sans SC',sans-serif" font-size="12.5" fill="#0d9488" font-weight="700" text-anchor="middle" style="">(数据)</text>
<marker id="m3" viewBox="0 0 10 10" refX="9" refY="5" markerWidth="7.5" markerHeight="7.5" orient="auto-start-reverse"><path d="M0,0.6 L9.5,5 L0,9.4 z" fill="#7a7d8c"/></marker>
<polyline points="460.0,101.0 460.0,160 357.5,160 357.5,220" fill="none" stroke="#7a7d8c" stroke-width="1.8" marker-end="url(#m3)"/>
<marker id="m4" viewBox="0 0 10 10" refX="9" refY="5" markerWidth="7.5" markerHeight="7.5" orient="auto-start-reverse"><path d="M0,0.6 L9.5,5 L0,9.4 z" fill="#7a7d8c"/></marker>
<polyline points="387.5,251.0 387.5,330 460.0,330 460.0,105.0" fill="none" stroke="#7a7d8c" stroke-width="1.2" stroke-dasharray="4 4" marker-end="url(#m4)"/>
<rect x="480" y="220" width="185" height="62" rx="10" fill="#f3e8ff" stroke="#7c3aed" stroke-width="1.4"/>
<text x="572.5" y="246.6" font-family="'Segoe UI','PingFang SC','Microsoft YaHei','Noto Sans SC',sans-serif" font-size="12.5" fill="#7c3aed" font-weight="700" text-anchor="middle" style="">写作员</text>
<text x="572.5" y="263.5" font-family="'Segoe UI','PingFang SC','Microsoft YaHei','Noto Sans SC',sans-serif" font-size="12.5" fill="#7c3aed" font-weight="700" text-anchor="middle" style="">(综合)</text>
<marker id="m5" viewBox="0 0 10 10" refX="9" refY="5" markerWidth="7.5" markerHeight="7.5" orient="auto-start-reverse"><path d="M0,0.6 L9.5,5 L0,9.4 z" fill="#7a7d8c"/></marker>
<polyline points="460.0,101.0 460.0,160 572.5,160 572.5,220" fill="none" stroke="#7a7d8c" stroke-width="1.8" marker-end="url(#m5)"/>
<marker id="m6" viewBox="0 0 10 10" refX="9" refY="5" markerWidth="7.5" markerHeight="7.5" orient="auto-start-reverse"><path d="M0,0.6 L9.5,5 L0,9.4 z" fill="#7a7d8c"/></marker>
<polyline points="602.5,251.0 602.5,330 460.0,330 460.0,105.0" fill="none" stroke="#7a7d8c" stroke-width="1.2" stroke-dasharray="4 4" marker-end="url(#m6)"/>
<rect x="695" y="220" width="185" height="62" rx="10" fill="#f3e8ff" stroke="#d97706" stroke-width="1.4"/>
<text x="787.5" y="246.6" font-family="'Segoe UI','PingFang SC','Microsoft YaHei','Noto Sans SC',sans-serif" font-size="12.5" fill="#d97706" font-weight="700" text-anchor="middle" style="">审查员</text>
<text x="787.5" y="263.5" font-family="'Segoe UI','PingFang SC','Microsoft YaHei','Noto Sans SC',sans-serif" font-size="12.5" fill="#d97706" font-weight="700" text-anchor="middle" style="">(事实核查)</text>
<marker id="m7" viewBox="0 0 10 10" refX="9" refY="5" markerWidth="7.5" markerHeight="7.5" orient="auto-start-reverse"><path d="M0,0.6 L9.5,5 L0,9.4 z" fill="#7a7d8c"/></marker>
<polyline points="460.0,101.0 460.0,160 787.5,160 787.5,220" fill="none" stroke="#7a7d8c" stroke-width="1.8" marker-end="url(#m7)"/>
<marker id="m8" viewBox="0 0 10 10" refX="9" refY="5" markerWidth="7.5" markerHeight="7.5" orient="auto-start-reverse"><path d="M0,0.6 L9.5,5 L0,9.4 z" fill="#7a7d8c"/></marker>
<polyline points="817.5,251.0 817.5,330 460.0,330 460.0,105.0" fill="none" stroke="#7a7d8c" stroke-width="1.2" stroke-dasharray="4 4" marker-end="url(#m8)"/>
<text x="460" y="360" font-family="'Segoe UI','PingFang SC','Microsoft YaHei','Noto Sans SC',sans-serif" font-size="12" fill="#4a4d5a" font-weight="600" text-anchor="middle" style="">↑ 每个工作 Agent:独立上下文 · 只回摘要与产物 · 失败不影响同伴</text>
<text x="460" y="412" font-family="'Segoe UI','PingFang SC','Microsoft YaHei','Noto Sans SC',sans-serif" font-size="12" fill="#7a7d8c" font-weight="400" text-anchor="middle" style="paint-order:stroke;stroke:#ffffff;stroke-width:3px;">Claude Code 的 Sub-agent、Deep Research 的并行检索、Map-Reduce 摘要 —— 全是这一模式</text></svg>