<svg xmlns="http://www.w3.org/2000/svg" width="880" height="400" viewBox="0 0 880 400"><defs></defs><rect width="880" height="400" fill="#ffffff"/><text x="440" y="30" font-family="'Segoe UI','PingFang SC','Microsoft YaHei','Noto Sans SC',sans-serif" font-size="17" fill="#1c1e26" font-weight="800" text-anchor="middle" style="">Agent 工程师能力雷达(面试考察维度)</text>
<polygon points="440,182 470,195 483,225 470,255 440,268 410,255 397,225 410,195" fill="none" stroke="#d2cec2" stroke-width="1"/>
<polygon points="440,139 501,164 526,225 501,286 440,311 379,286 354,225 379,164" fill="none" stroke="#d2cec2" stroke-width="1"/>
<polygon points="440,95 532,133 570,225 532,317 440,355 348,317 310,225 348,133" fill="none" stroke="#d2cec2" stroke-width="1"/>
<line x1="440" y1="225" x2="440" y2="95" stroke="#d2cec2" stroke-width="1"/>
<line x1="440" y1="225" x2="531" y2="133" stroke="#d2cec2" stroke-width="1"/>
<line x1="440" y1="225" x2="570" y2="225" stroke="#d2cec2" stroke-width="1"/>
<line x1="440" y1="225" x2="531" y2="316" stroke="#d2cec2" stroke-width="1"/>
<line x1="440" y1="225" x2="440" y2="355" stroke="#d2cec2" stroke-width="1"/>
<line x1="440" y1="225" x2="348" y2="316" stroke="#d2cec2" stroke-width="1"/>
<line x1="440" y1="225" x2="310" y2="225" stroke="#d2cec2" stroke-width="1"/>
<line x1="440" y1="225" x2="348" y2="133" stroke="#d2cec2" stroke-width="1"/>
<polygon points="440,134 518,147 557,225 495,280 440,329 389,276 342,225 376,161" fill="#eef0fd" opacity="0.55" stroke="#4f46e5" stroke-width="2"/>
<text x="440.0" y="73.0" font-family="'Segoe UI','PingFang SC','Microsoft YaHei','Noto Sans SC',sans-serif" font-size="11.5" fill="#1c1e26" font-weight="700" text-anchor="middle" style="">LLM 原理</text>
<text x="550.3" y="118.7" font-family="'Segoe UI','PingFang SC','Microsoft YaHei','Noto Sans SC',sans-serif" font-size="11.5" fill="#1c1e26" font-weight="700" text-anchor="middle" style="">提示工程</text>
<text x="596.0" y="229.0" font-family="'Segoe UI','PingFang SC','Microsoft YaHei','Noto Sans SC',sans-serif" font-size="11.5" fill="#1c1e26" font-weight="700" text-anchor="middle" style="">Agent 架构</text>
<text x="550.3" y="339.3" font-family="'Segoe UI','PingFang SC','Microsoft YaHei','Noto Sans SC',sans-serif" font-size="11.5" fill="#1c1e26" font-weight="700" text-anchor="middle" style="">数据与训练</text>
<text x="440.0" y="385.0" font-family="'Segoe UI','PingFang SC','Microsoft YaHei','Noto Sans SC',sans-serif" font-size="11.5" fill="#1c1e26" font-weight="700" text-anchor="middle" style="">评测体系</text>
<text x="329.7" y="339.3" font-family="'Segoe UI','PingFang SC','Microsoft YaHei','Noto Sans SC',sans-serif" font-size="11.5" fill="#1c1e26" font-weight="700" text-anchor="middle" style="">安全合规</text>
<text x="284.0" y="229.0" font-family="'Segoe UI','PingFang SC','Microsoft YaHei','Noto Sans SC',sans-serif" font-size="11.5" fill="#1c1e26" font-weight="700" text-anchor="middle" style="">系统工程</text>
<text x="329.7" y="118.7" font-family="'Segoe UI','PingFang SC','Microsoft YaHei','Noto Sans SC',sans-serif" font-size="11.5" fill="#1c1e26" font-weight="700" text-anchor="middle" style="">产品思维</text>
<text x="440" y="382" font-family="'Segoe UI','PingFang SC','Microsoft YaHei','Noto Sans SC',sans-serif" font-size="12" fill="#7a7d8c" font-weight="400" text-anchor="middle" style="paint-order:stroke;stroke:#ffffff;stroke-width:3px;">高分项通常是『Agent 架构 + 提示工程 + 评测』;数据训练维度对研究员岗要求更高</text></svg>